# xmcd
#
# Track frame offsets: 
#        150
#        28331
#        52485
#        75083
#        93468
#        118685
#        141104
#        160184
#        178560
#        208876
#        245472
#        263460
#        288218
#
# Disc length: 4166 seconds
#
# Revision: 0
# Processed by: cddbd v1.5.2PL0 Copyright (c) Steve Scherf et al.
# Submitted via: ExactAudioCopy v0.99pb5
#
DISCID=b410440d
DTITLE=Various Artist - North Mississippi Hill Country Picnic Volume II
DYEAR=2013
DGENRE=Blues
TTITLE0=Rev. John Wilkins - You got to move
TTITLE1=Eric Deaton - I'm goin away
TTITLE2=Loose Shoes - Bring it to Jerome
TTITLE3=Robert Belfour - Hill stomp
TTITLE4=Alvin Youngblood Hart - Big Mamas door
TTITLE5=Blue Mountain - Midnight in Mississippi
TTITLE6=Jimbo Mathus - Little hand, big gun
TTITLE7=T-Model Ford - I'm goin down
TTITLE8=North Mississippi Allstars DuoLuco - My Babe, Station Blues, G
TTITLE8=lory Glory
TTITLE9=Hill Country Revue - Georgia Women
TTITLE10=Duwayne Burnside - Sanke drive
TTITLE11=Kenny Brown - Shake your money maker
TTITLE12=Duff Durrough - Stand by me
EXTD=
EXTT0=
EXTT1=
EXTT2=
EXTT3=
EXTT4=
EXTT5=
EXTT6=
EXTT7=
EXTT8=
EXTT9=
EXTT10=
EXTT11=
EXTT12=
PLAYORDER=
